<svg xmlns="http://www.w3.org/2000/svg" width="149.01999999999998" height="35" viewBox="0 0 149.01999999999998 35"><rect class="svg__rect" x="0" y="0" width="84.24" height="35" fill="#7DDF57"/><rect class="svg__rect" x="82.24" y="0" width="66.78" height="35" fill="#22B900"/><path class="svg__text" d="M16.25 14.66L13.61 14.66L13.61 13.47L20.38 13.47L20.38 14.66L17.72 14.66L17.72 22L16.25 22L16.25 14.66ZM29.72 22L24.14 22L24.14 13.47L29.67 13.47L29.67 14.66L25.62 14.66L25.62 17.02L29.12 17.02L29.12 18.19L25.62 18.19L25.62 20.82L29.72 20.82L29.72 22ZM33.48 19.42L33.48 19.42L34.96 19.42Q34.96 20.15 35.44 20.55Q35.92 20.95 36.82 20.95L36.82 20.95Q37.59 20.95 37.98 20.63Q38.37 20.32 38.37 19.80L38.37 19.80Q38.37 19.24 37.97 18.94Q37.58 18.63 36.55 18.32Q35.52 18.01 34.91 17.63L34.91 17.63Q33.74 16.90 33.74 15.72L33.74 15.72Q33.74 14.69 34.58 14.02Q35.42 13.35 36.76 13.35L36.76 13.35Q37.65 13.35 38.35 13.68Q39.05 14.01 39.45 14.61Q39.85 15.22 39.85 15.96L39.85 15.96L38.37 15.96Q38.37 15.29 37.95 14.91Q37.53 14.54 36.75 14.54L36.75 14.54Q36.03 14.54 35.62 14.85Q35.22 15.16 35.22 15.71L35.22 15.71Q35.22 16.18 35.66 16.50Q36.09 16.81 37.09 17.10Q38.08 17.40 38.69 17.78Q39.29 18.16 39.57 18.65Q39.85 19.13 39.85 19.79L39.85 19.79Q39.85 20.86 39.03 21.49Q38.22 22.12 36.82 22.12L36.82 22.12Q35.89 22.12 35.11 21.77Q34.34 21.43 33.91 20.83Q33.48 20.22 33.48 19.42ZM45.82 14.66L43.19 14.66L43.19 13.47L49.95 13.47L49.95 14.66L47.29 14.66L47.29 22L45.82 22L45.82 14.66ZM59.29 22L53.71 22L53.71 13.47L59.25 13.47L59.25 14.66L55.19 14.66L55.19 17.02L58.70 17.02L58.70 18.19L55.19 18.19L55.19 20.82L59.29 20.82L59.29 22ZM65.94 22L63.48 22L63.48 13.47L66.00 13.47Q67.13 13.47 68.01 13.97Q68.89 14.48 69.37 15.40Q69.85 16.33 69.85 17.52L69.85 17.52L69.85 17.95Q69.85 19.16 69.36 20.08Q68.88 21.00 67.99 21.50Q67.09 22 65.94 22L65.94 22ZM64.97 14.66L64.97 20.82L65.93 20.82Q67.10 20.82 67.72 20.09Q68.35 19.36 68.36 17.99L68.36 17.99L68.36 17.52Q68.36 16.13 67.75 15.40Q67.15 14.66 66.00 14.66L66.00 14.66L64.97 14.66Z" fill="#FFFFFF"/><path class="svg__text" d="M95.35 20.93L95.35 20.93L96.64 19.40Q97.31 20.27 98.09 20.27L98.09 20.27Q98.09 20.27 98.10 20.27L98.10 20.27Q98.61 20.27 98.88 19.96Q99.15 19.65 99.15 19.05L99.15 19.05L99.15 15.44L96.25 15.44L96.25 13.60L101.51 13.60L101.51 18.91Q101.51 20.54 100.68 21.36Q99.86 22.17 98.27 22.17L98.27 22.17Q97.34 22.17 96.59 21.85Q95.83 21.53 95.35 20.93ZM113.34 22L106.59 22L106.59 13.60L113.19 13.60L113.19 15.44L108.95 15.44L108.95 16.85L112.68 16.85L112.68 18.63L108.95 18.63L108.95 20.17L113.34 20.17L113.34 22ZM117.56 21.24L117.56 21.24L118.34 19.49Q118.90 19.86 119.64 20.09Q120.39 20.32 121.11 20.32L121.11 20.32Q122.47 20.32 122.48 19.64L122.48 19.64Q122.48 19.28 122.09 19.11Q121.70 18.93 120.83 18.74L120.83 18.74Q119.88 18.53 119.25 18.30Q118.61 18.06 118.16 17.55Q117.70 17.03 117.70 16.16L117.70 16.16Q117.70 15.39 118.12 14.77Q118.54 14.15 119.38 13.79Q120.21 13.43 121.42 13.43L121.42 13.43Q122.24 13.43 123.05 13.62Q123.86 13.80 124.47 14.17L124.47 14.17L123.74 15.93Q122.54 15.28 121.41 15.28L121.41 15.28Q120.70 15.28 120.38 15.49Q120.05 15.70 120.05 16.04L120.05 16.04Q120.05 16.37 120.44 16.54Q120.82 16.71 121.67 16.89L121.67 16.89Q122.63 17.10 123.26 17.33Q123.89 17.56 124.35 18.07Q124.82 18.58 124.82 19.46L124.82 19.46Q124.82 20.21 124.40 20.83Q123.98 21.44 123.14 21.80Q122.30 22.17 121.10 22.17L121.10 22.17Q120.08 22.17 119.12 21.92Q118.15 21.67 117.56 21.24ZM131.19 15.48L128.60 15.48L128.60 13.60L136.13 13.60L136.13 15.48L133.56 15.48L133.56 22L131.19 22L131.19 15.48Z" fill="#FFFFFF" x="95.24"/></svg>