<svg xmlns="http://www.w3.org/2000/svg" width="186.96999999999997" height="35" viewBox="0 0 186.96999999999997 35"><rect class="svg__rect" x="0" y="0" width="84.24" height="35" fill="#6ED67D"/><rect class="svg__rect" x="82.24" y="0" width="104.72999999999999" height="35" fill="#00A31F"/><path class="svg__text" d="M16.25 14.66L13.61 14.66L13.61 13.47L20.38 13.47L20.38 14.66L17.72 14.66L17.72 22L16.25 22L16.25 14.66ZM29.72 22L24.14 22L24.14 13.47L29.67 13.47L29.67 14.66L25.62 14.66L25.62 17.02L29.12 17.02L29.12 18.19L25.62 18.19L25.62 20.82L29.72 20.82L29.72 22ZM33.48 19.42L33.48 19.42L34.96 19.42Q34.96 20.15 35.44 20.55Q35.92 20.95 36.82 20.95L36.82 20.95Q37.59 20.95 37.98 20.63Q38.37 20.32 38.37 19.80L38.37 19.80Q38.37 19.24 37.97 18.94Q37.58 18.63 36.55 18.32Q35.52 18.01 34.91 17.63L34.91 17.63Q33.74 16.90 33.74 15.72L33.74 15.72Q33.74 14.69 34.58 14.02Q35.42 13.35 36.76 13.35L36.76 13.35Q37.65 13.35 38.35 13.68Q39.05 14.01 39.45 14.61Q39.85 15.22 39.85 15.96L39.85 15.96L38.37 15.96Q38.37 15.29 37.95 14.91Q37.53 14.54 36.75 14.54L36.75 14.54Q36.03 14.54 35.62 14.85Q35.22 15.16 35.22 15.71L35.22 15.71Q35.22 16.18 35.66 16.50Q36.09 16.81 37.09 17.10Q38.08 17.40 38.69 17.78Q39.29 18.16 39.57 18.65Q39.85 19.13 39.85 19.79L39.85 19.79Q39.85 20.86 39.03 21.49Q38.22 22.12 36.82 22.12L36.82 22.12Q35.89 22.12 35.11 21.77Q34.34 21.43 33.91 20.83Q33.48 20.22 33.48 19.42ZM45.82 14.66L43.19 14.66L43.19 13.47L49.95 13.47L49.95 14.66L47.29 14.66L47.29 22L45.82 22L45.82 14.66ZM59.29 22L53.71 22L53.71 13.47L59.25 13.47L59.25 14.66L55.19 14.66L55.19 17.02L58.70 17.02L58.70 18.19L55.19 18.19L55.19 20.82L59.29 20.82L59.29 22ZM65.94 22L63.48 22L63.48 13.47L66.00 13.47Q67.13 13.47 68.01 13.97Q68.89 14.48 69.37 15.40Q69.85 16.33 69.85 17.52L69.85 17.52L69.85 17.95Q69.85 19.16 69.36 20.08Q68.88 21.00 67.99 21.50Q67.09 22 65.94 22L65.94 22ZM64.97 14.66L64.97 20.82L65.93 20.82Q67.10 20.82 67.72 20.09Q68.35 19.36 68.36 17.99L68.36 17.99L68.36 17.52Q68.36 16.13 67.75 15.40Q67.15 14.66 66.00 14.66L66.00 14.66L64.97 14.66Z" fill="#FFFFFF"/><path class="svg__text" d="M96.00 17.80L96.00 17.80Q96.00 16.54 96.60 15.54Q97.20 14.55 98.25 13.99Q99.30 13.43 100.62 13.43L100.62 13.43Q101.77 13.43 102.69 13.84Q103.62 14.25 104.23 15.02L104.23 15.02L102.72 16.39Q101.91 15.40 100.74 15.40L100.74 15.40Q100.05 15.40 99.52 15.70Q98.99 16 98.69 16.54Q98.40 17.09 98.40 17.80L98.40 17.80Q98.40 18.51 98.69 19.05Q98.99 19.60 99.52 19.90Q100.05 20.20 100.74 20.20L100.74 20.20Q101.91 20.20 102.72 19.22L102.72 19.22L104.23 20.58Q103.62 21.35 102.70 21.76Q101.77 22.17 100.62 22.17L100.62 22.17Q99.30 22.17 98.25 21.61Q97.20 21.05 96.60 20.05Q96.00 19.06 96.00 17.80ZM110.89 18.95L107.69 13.60L110.20 13.60L112.19 16.94L114.18 13.60L116.48 13.60L113.27 18.99L113.27 22L110.89 22L110.89 18.95ZM122.95 22L120.57 22L120.57 13.60L124.41 13.60Q125.55 13.60 126.39 13.98Q127.23 14.35 127.69 15.06Q128.14 15.76 128.14 16.71L128.14 16.71Q128.14 17.66 127.69 18.35Q127.23 19.05 126.39 19.42Q125.55 19.80 124.41 19.80L124.41 19.80L122.95 19.80L122.95 22ZM122.95 15.47L122.95 17.93L124.27 17.93Q125.00 17.93 125.37 17.61Q125.74 17.29 125.74 16.71L125.74 16.71Q125.74 16.12 125.37 15.80Q125.00 15.47 124.27 15.47L124.27 15.47L122.95 15.47ZM135.28 22L132.90 22L132.90 13.60L136.74 13.60Q137.88 13.60 138.72 13.98Q139.56 14.35 140.02 15.06Q140.47 15.76 140.47 16.71L140.47 16.71Q140.47 17.62 140.05 18.30Q139.62 18.98 138.83 19.36L138.83 19.36L140.64 22L138.09 22L136.57 19.77L135.28 19.77L135.28 22ZM135.28 15.47L135.28 17.93L136.59 17.93Q137.33 17.93 137.70 17.61Q138.07 17.29 138.07 16.71L138.07 16.71Q138.07 16.12 137.70 15.79Q137.33 15.47 136.59 15.47L136.59 15.47L135.28 15.47ZM152.00 22L145.26 22L145.26 13.60L151.85 13.60L151.85 15.44L147.62 15.44L147.62 16.85L151.35 16.85L151.35 18.63L147.62 18.63L147.62 20.17L152.00 20.17L152.00 22ZM156.22 21.24L156.22 21.24L157.00 19.49Q157.56 19.86 158.31 20.09Q159.05 20.32 159.77 20.32L159.77 20.32Q161.14 20.32 161.14 19.64L161.14 19.64Q161.14 19.28 160.76 19.11Q160.37 18.93 159.50 18.74L159.50 18.74Q158.55 18.53 157.91 18.30Q157.28 18.06 156.82 17.55Q156.37 17.03 156.37 16.16L156.37 16.16Q156.37 15.39 156.79 14.77Q157.21 14.15 158.04 13.79Q158.88 13.43 160.08 13.43L160.08 13.43Q160.91 13.43 161.72 13.62Q162.52 13.80 163.14 14.17L163.14 14.17L162.40 15.93Q161.20 15.28 160.07 15.28L160.07 15.28Q159.36 15.28 159.04 15.49Q158.72 15.70 158.72 16.04L158.72 16.04Q158.72 16.37 159.10 16.54Q159.49 16.71 160.34 16.89L160.34 16.89Q161.30 17.10 161.93 17.33Q162.56 17.56 163.02 18.07Q163.48 18.58 163.48 19.46L163.48 19.46Q163.48 20.21 163.06 20.83Q162.64 21.44 161.80 21.80Q160.96 22.17 159.76 22.17L159.76 22.17Q158.74 22.17 157.78 21.92Q156.82 21.67 156.22 21.24ZM167.47 21.24L167.47 21.24L168.25 19.49Q168.81 19.86 169.56 20.09Q170.30 20.32 171.02 20.32L171.02 20.32Q172.39 20.32 172.39 19.64L172.39 19.64Q172.39 19.28 172.01 19.11Q171.62 18.93 170.75 18.74L170.75 18.74Q169.80 18.53 169.16 18.30Q168.53 18.06 168.07 17.55Q167.62 17.03 167.62 16.16L167.62 16.16Q167.62 15.39 168.04 14.77Q168.46 14.15 169.29 13.79Q170.13 13.43 171.33 13.43L171.33 13.43Q172.16 13.43 172.97 13.62Q173.77 13.80 174.39 14.17L174.39 14.17L173.65 15.93Q172.45 15.28 171.32 15.28L171.32 15.28Q170.61 15.28 170.29 15.49Q169.97 15.70 169.97 16.04L169.97 16.04Q169.97 16.37 170.35 16.54Q170.74 16.71 171.59 16.89L171.59 16.89Q172.55 17.10 173.18 17.33Q173.81 17.56 174.27 18.07Q174.73 18.58 174.73 19.46L174.73 19.46Q174.73 20.21 174.31 20.83Q173.89 21.44 173.05 21.80Q172.21 22.17 171.01 22.17L171.01 22.17Q169.99 22.17 169.03 21.92Q168.07 21.67 167.47 21.24Z" fill="#FFFFFF" x="95.24"/></svg>